<svg version="1.1" xmlns="http://www.w3.org/2000/svg" viewBox="0 0 283.2686069793998 597.4741321287212" width="283.2686069793998" height="597.4741321287212">
  <!-- svg-source:excalidraw -->
  
  <defs>
    <style>
      @font-face {
        font-family: "Virgil";
        src: url("https://excalidraw.com/Virgil.woff2");
      }
      @font-face {
        font-family: "Cascadia";
        src: url("https://excalidraw.com/Cascadia.woff2");
      }
    </style>
  </defs>
  <g stroke-linecap="round"><g transform="translate(135.82455997690556 156.28415861717426) rotate(0 -0.7853600645530605 118.95786727840547)"><path d="M-0.74 0.24 C-1.08 40.19, -1.94 198.87, -2.14 238.6 M1.07 -0.69 C0.66 39.02, -2.11 197.25, -2.64 236.79" stroke="#000000" stroke-width="1" fill="none"></path></g></g><g stroke-linecap="round"><g transform="translate(64.82455997690556 219.28415861717426) rotate(0 72.50226042494171 0.613193508917476)"><path d="M-0.77 0.27 C23.71 0.2, 121.52 0.49, 145.78 0.56 M1.02 -0.64 C25.51 -0.62, 121.42 1.45, 145.24 1.86" stroke="#000000" stroke-width="1" fill="none"></path></g></g><g stroke-linecap="round"><g transform="translate(66.82455997690556 218.28415861717426) rotate(0 -26.225789515920894 47.89702299542262)"><path d="M-0.87 0.6 C-9.59 16.41, -44.51 78.86, -53.33 94.42 M0.87 -0.14 C-7.37 15.92, -42.23 80.07, -50.96 95.93" stroke="#000000" stroke-width="1" fill="none"></path></g></g><g stroke-linecap="round"><g transform="translate(210.82455997690556 219.28415861717426) rotate(0 30.507854131194733 -44.845774463191646)"><path d="M0.02 0.52 C10.39 -14.68, 52.09 -75.4, 62.44 -90.21 M-1.43 -0.26 C8.78 -15.43, 51.15 -74.26, 61.61 -89.25" stroke="#000000" stroke-width="1" fill="none"></path></g></g><g stroke-linecap="round"><g transform="translate(131.82455997690556 393.2841586171743) rotate(0 -53.618879329608774 29.71588045586833)"><path d="M-0.36 0 C-18.28 9.93, -90.11 49.17, -108.3 59.3 M1.65 -1.04 C-16.3 9.05, -90.18 50.49, -108.88 60.47" stroke="#000000" stroke-width="1" fill="none"></path></g></g><g stroke-linecap="round"><g transform="translate(24.82455997690556 453.2841586171743) rotate(0 -6.852786102145899 56.383057207958814)"><path d="M1.12 0.26 C-1.37 18.84, -12.36 93.32, -14.82 112.27 M0.25 -0.65 C-1.87 18.01, -10.13 94.62, -12.55 113.42" stroke="#000000" stroke-width="1" fill="none"></path></g></g><g stroke-linecap="round"><g transform="translate(134.82455997690556 393.2841586171743) rotate(0 31.997653657114142 39.32530592453202)"><path d="M0.21 -0.46 C10.73 13.1, 52.32 66.86, 62.97 80.4 M-1.15 -1.75 C9.75 11.53, 54.38 65.05, 65.14 78.49" stroke="#000000" stroke-width="1" fill="none"></path></g></g><g stroke-linecap="round"><g transform="translate(193.82455997690556 469.2841586171743) rotate(0 24.037701378017687 58.706737873801046)"><path d="M-0.37 0.18 C7.52 20.07, 40.45 98.87, 48.45 118.19 M1.63 -0.78 C9.31 18.92, 40.23 97.07, 47.74 116.69" stroke="#000000" stroke-width="1" fill="none"></path></g></g><g stroke-linecap="round" transform="translate(88.82455997690556 87.28415861717426) rotate(0 55.5 61)"><path d="M-1.55 0.7 L110.13 0.9 L111.2 122 L-1.81 121.86" stroke="none" stroke-width="0" fill="#000000"></path><path d="M-0.83 0.69 C38.53 -0.45, 82.58 -1.79, 111.97 0.75 M0.88 0.04 C31.56 -0.55, 63.16 -0.93, 111.75 -0.42 M110.05 -0.11 C110.87 45.43, 110.96 94.94, 112.07 121.91 M111.98 -0.7 C111.79 42.26, 111.67 84.07, 111.12 121.02 M111.8 122.4 C79.19 121.48, 52.49 123.84, -1.6 121.35 M110.43 122.77 C87.45 122.09, 62.95 121.24, 0.22 122.99 M0.48 123.49 C-1.6 79.83, 1.28 37.73, 1.19 1.23 M-0.46 122.96 C0.05 80.64, -0.39 37.76, -0.38 0.68" stroke="#000000" stroke-width="1" fill="none"></path></g><g stroke-linecap="round" transform="translate(86.82455997690556 25.284158617174256) rotate(0 56.5 55)"><path d="M53.84 0.89 C62.56 -0.37, 73.47 2.71, 81.74 6.64 C90.01 10.57, 98.4 17.01, 103.48 24.46 C108.56 31.9, 111.57 42.23, 112.21 51.32 C112.86 60.4, 111.37 70.53, 107.36 78.97 C103.36 87.42, 96.03 96.85, 88.17 101.98 C80.32 107.1, 69.76 109.38, 60.22 109.73 C50.69 110.07, 39.56 108.02, 30.97 104.05 C22.37 100.08, 13.95 93.75, 8.67 85.91 C3.39 78.07, -0.25 66.25, -0.72 57.03 C-1.19 47.81, 1.6 38.54, 5.84 30.61 C10.07 22.67, 15.07 14.46, 24.72 9.41 C34.36 4.35, 55.31 1.1, 63.7 0.28 C72.09 -0.53, 74.96 3.44, 75.06 4.5 M74.07 3.47 C82.93 5.33, 91.56 10.03, 98.05 16.58 C104.54 23.14, 110.99 33.79, 113 42.81 C115.01 51.83, 113.37 61.98, 110.11 70.69 C106.86 79.4, 100.48 88.76, 93.45 95.08 C86.42 101.4, 77.11 106.49, 67.92 108.61 C58.73 110.72, 47.38 110.49, 38.3 107.79 C29.21 105.09, 19.59 99.23, 13.39 92.39 C7.19 85.55, 2.71 75.97, 1.09 66.75 C-0.54 57.54, 1.03 45.87, 3.66 37.08 C6.29 28.3, 9.95 20.21, 16.88 14.06 C23.8 7.92, 35.85 2.3, 45.21 0.21 C54.57 -1.87, 68.14 0.78, 73.03 1.55 C77.92 2.33, 74.85 3.63, 74.56 4.88" stroke="none" stroke-width="0" fill="#000000"></path><path d="M69.57 1.26 C78.48 2.46, 89.51 8.31, 96.44 14.67 C103.37 21.03, 108.61 30.46, 111.17 39.42 C113.72 48.38, 114.11 59.6, 111.77 68.42 C109.43 77.23, 103.76 85.79, 97.13 92.31 C90.5 98.83, 81.04 104.89, 71.99 107.56 C62.94 110.23, 51.99 110.32, 42.84 108.32 C33.68 106.31, 23.9 101.74, 17.06 95.52 C10.23 89.3, 4.48 79.82, 1.81 71 C-0.86 62.17, -1.23 51.68, 1.04 42.55 C3.31 33.43, 8.73 22.93, 15.43 16.25 C22.13 9.56, 30.81 4.4, 41.25 2.45 C51.69 0.5, 70.66 3.49, 78.06 4.55 C85.45 5.61, 86.15 8.11, 85.63 8.79 M62.85 -0.89 C72.15 -1.06, 82.23 3.46, 89.86 8.94 C97.49 14.41, 104.6 23.56, 108.62 31.98 C112.64 40.41, 114.72 50.6, 113.98 59.5 C113.24 68.4, 109.62 78.03, 104.17 85.41 C98.72 92.78, 90.21 99.82, 81.29 103.76 C72.37 107.69, 59.99 109.84, 50.65 109.02 C41.32 108.21, 32.74 103.89, 25.29 98.85 C17.84 93.82, 10.13 86.77, 5.97 78.81 C1.81 70.85, -0.28 60.34, 0.31 51.09 C0.91 41.85, 4.39 31.01, 9.55 23.35 C14.7 15.69, 22.81 8.8, 31.23 5.11 C39.64 1.43, 54.93 2.03, 60.05 1.24 C65.18 0.46, 61.74 -0.26, 61.99 0.41" stroke="#000000" stroke-width="1" fill="none"></path></g><g stroke-linecap="round" transform="translate(57.82455997690556 63.284158617174256) rotate(0 17 29)"><path d="M18.13 -0.14 C18.13 -0.14, 18.13 -0.14, 18.13 -0.14 M18.13 -0.14 C18.13 -0.14, 18.13 -0.14, 18.13 -0.14 M5.44 19.68 C10.58 14.23, 13.91 11.05, 20.75 5.31 M5.48 19.38 C10.75 13.65, 17.88 7.79, 20.4 3.87 M2.42 30.68 C6.8 25.89, 9.73 18.6, 20.43 5.44 M1.15 31.48 C8.85 22.08, 17.94 12.83, 21.73 6.68 M3 33.79 C10.39 30.99, 12.08 23.51, 24.3 12.91 M3.05 35.36 C8.22 28.34, 12.71 23.48, 24.18 11.61 M6.18 37.99 C11.46 30.37, 16.45 26.29, 26.91 15.81 M5.44 38.15 C12.13 31.98, 16.45 25.75, 26.22 14.88 M7.12 41.48 C17.27 31.86, 24.81 23.23, 27.5 18.36 M8.27 41.52 C15.16 32.69, 22.16 24.99, 27.92 19.73 M9.26 46.56 C14.93 41.47, 18.32 36.48, 30.63 21.53 M11.21 45.66 C15.42 41.04, 18.09 35.62, 29.55 22.11 M11.76 50.3 C20.1 40.59, 22.88 35.3, 32.27 27.67 M13.01 48.98 C19.35 41.45, 25.86 32.97, 31.62 26.4 M16.16 51.9 C17.89 48.1, 22.7 41.51, 32.48 29.14 M14.15 52.55 C23.02 43.36, 29.67 34.33, 33.46 29.03 M16.71 56.13 C18.42 54.6, 20.68 52.28, 25.04 47.01 M16.91 56.39 C19.34 53.44, 20.9 52.13, 23.84 47.74 M18.27 58.24 C18.27 58.24, 18.27 58.24, 18.27 58.24 M18.27 58.24 C18.27 58.24, 18.27 58.24, 18.27 58.24 M19.9 53.67 C18.21 52.89, 13.56 49.55, 9.47 45.18 M20.26 54.85 C16.73 51.67, 14.02 48.9, 10.85 46.59 M23.88 51.29 C14.41 46.04, 9.54 40.6, 0.59 33.42 M22.34 51.06 C17.25 46.48, 13.01 43.13, 3.05 34.79 M25.55 47.28 C17.66 39.16, 6.61 33.47, 2.9 28.96 M23.58 47.81 C16.55 40.48, 8.45 34.21, 2.52 27.57 M24.21 43.01 C17.6 38.44, 13.89 33.33, 4.86 25.76 M24.98 44.45 C21.18 39.26, 17.01 35.05, 2.97 24.57 M26.74 40.71 C22.22 35.07, 18.1 31.89, 7.46 20.23 M27.83 40.51 C23.54 36.62, 17.81 30.75, 6.22 20.67 M31.79 35.07 C22.75 30.85, 18.13 25.77, 7.15 17.42 M29.99 37 C23.98 32.13, 19.45 27.28, 7.82 17.97 M33.73 31.71 C23.06 24.68, 13.68 18.32, 9.95 13.02 M31.82 33.95 C26.39 28.48, 20.87 24.1, 11.04 14.87 M34.95 31.24 C26.52 25.5, 19.21 19.3, 11.27 11.97 M34.39 29.54 C27.6 22.66, 21.11 17.37, 12.75 9.72 M27.28 18.62 C22.41 15.41, 19.79 11.32, 12.39 8.41 M28.81 20.5 C24.6 15.86, 20.58 13.02, 13.67 5.85 M23.17 10.21 C21.67 7.75, 17.92 4.7, 16.88 4.62 M23.27 9.32 C22.43 8.67, 20.21 6.89, 16.87 4.14" stroke="#000000" stroke-width="0.5" fill="none"></path><path d="M16.5 0.3 C25.02 10.13, 29.98 21.18, 35.77 31.08 M18.91 0.22 C21.68 7.3, 24.1 11.89, 33.11 30.84 M33.24 28.83 C28.47 38.17, 23.33 49.54, 19.99 58.95 M33.33 29.22 C28.43 40.19, 21.51 51.75, 17.22 58.18 M19.16 59.06 C13.39 46.56, 5.75 37.67, 0.33 30.53 M17.94 57.75 C11.31 47.97, 4.69 36.88, -0.72 29.71 M0.43 29.53 C5 19.88, 12.07 7.03, 18.13 -0.87 M-0.28 29.75 C5.59 21.34, 8.62 14.06, 18.86 0.31" stroke="#000000" stroke-width="1" fill="none"></path></g><g stroke-linecap="round" transform="translate(195.82455997690556 62.284158617174256) rotate(0 17 29)"><path d="M18.13 -0.14 C18.13 -0.14, 18.13 -0.14, 18.13 -0.14 M18.13 -0.14 C18.13 -0.14, 18.13 -0.14, 18.13 -0.14 M6.87 20.48 C11.25 14.13, 13.56 10.55, 18.86 3.74 M5.34 19.8 C11.59 14.22, 17.22 6.48, 19.25 3.9 M-0.57 31.05 C8.83 23.55, 17.93 11.06, 22.15 7.1 M1.47 31.47 C7.26 25.05, 12.73 18.79, 21.5 8.13 M5.32 35.19 C8.56 26.3, 16.85 20, 25.01 12.75 M3.59 34.11 C10.81 26.07, 18.16 17.01, 23.27 12.45 M5.29 38.51 C14.89 30.76, 20.95 19.78, 26.26 16.01 M6 37.85 C10.71 32.09, 16.67 26.05, 26.98 14.56 M8.44 39.73 C11.75 38.78, 18.03 33.39, 26.83 19.02 M8.26 40.71 C14.49 33.13, 23.05 25.92, 27.63 19.2 M11.62 46.39 C14.54 38.36, 20.71 31.92, 29.68 24.08 M11.63 44.21 C18.15 37.38, 25.44 29.28, 29.76 21.4 M14.04 50.2 C18.83 43.19, 24.78 33.13, 33.13 27.07 M12.79 48.68 C17.33 43.94, 21.93 39.64, 31.86 25.84 M15.28 51.22 C21.06 44.25, 31.15 33.14, 34.76 30.8 M14.86 53.34 C21.15 45.87, 26.22 39.92, 35.33 30.11 M16.77 54.94 C18.34 53.69, 20.02 52.99, 24.66 47.81 M17.41 56.29 C19.86 53.61, 21.44 50.67, 24.76 47.64 M18.27 58.24 C18.27 58.24, 18.27 58.24, 18.27 58.24 M18.27 58.24 C18.27 58.24, 18.27 58.24, 18.27 58.24 M20.49 55.21 C18.93 51.83, 15.84 50.64, 9.33 47.21 M20.17 53.98 C16.99 51.38, 13.32 48.7, 9.8 46.1 M22.25 52.61 C16.85 45.42, 13.55 43.59, 1.29 33.81 M21.2 51.37 C15 44.74, 7.59 38.31, 3.16 32.94 M23.4 46.01 C18.8 42.07, 16.31 37.04, 1.49 28.49 M24.06 46.67 C18.76 43.64, 13.32 39.21, 2.8 27.46 M25.48 43.26 C18.8 37.43, 13.16 34.21, 3.28 26.07 M26.5 44.35 C20.06 38.17, 13.39 33.26, 4.35 25.39 M30.02 39.7 C23.44 35.09, 15.87 29.02, 6.54 20.93 M27.94 41.17 C20.3 34.37, 14.15 27.34, 4.84 20.19 M30.26 35.27 C27.1 32, 22.71 29.85, 7.85 18.99 M30.12 36.54 C23.71 32.29, 17.98 26.38, 8.12 18.4 M30.36 33.8 C25.85 24.13, 14.04 19.74, 9.73 12.54 M31.33 33.79 C24.31 25.65, 15.73 17.87, 11.2 14.33 M32.95 27.8 C28.53 26.43, 24.03 17.76, 11.87 11.49 M33.06 28.84 C26.07 22.02, 18.74 16.58, 12.55 11.32 M27.76 20.53 C25.32 15.61, 23.47 12.42, 14.71 8.18 M29.68 20.26 C24.31 15.07, 20.3 11.95, 14.7 6.43 M22.7 10.03 C22.16 9.19, 20.75 6.34, 16.13 2.98 M23.53 9.68 C21.31 7.93, 18.77 5.95, 16.99 3.46" stroke="#000000" stroke-width="0.5" fill="none"></path><path d="M17.05 0.13 C20.87 6.12, 25.96 14.24, 33.43 29.5 M17.9 0.86 C24.42 12.02, 29.51 23.78, 34.64 29.58 M35.58 29.13 C30.55 36.58, 27.13 42.43, 17.05 57.07 M33.02 29.2 C30.17 37.36, 24.85 45.06, 17.69 57.92 M17.46 58.92 C13.37 50.42, 4.31 40.33, -1.16 29.08 M18.67 58.57 C14.06 51.66, 10.48 45.9, 0.61 29.58 M-1.61 28.23 C4.06 21.78, 11.07 8.22, 17.9 -0.09 M-0.48 29.53 C3.99 21.77, 9.51 14.2, 17.72 -0.56" stroke="#000000" stroke-width="1" fill="none"></path></g><g stroke-linecap="round"><g transform="translate(76.82455997690556 60.284158617174256) rotate(0 20.671187365311198 -20.97291475242936)"><path d="M-0.7 -0.55 C6.11 -7.66, 32.81 -34.96, 39.9 -41.73 M1.14 1.77 C8.39 -5.79, 35.3 -36.23, 42.04 -43.72" stroke="#000000" stroke-width="1" fill="none"></path></g></g><g stroke-linecap="round"><g transform="translate(114.82455997690556 17.284158617174256) rotate(0 26.824341902881827 -2.5987050094222752)"><path d="M-0.28 -0.39 C8.51 -0.68, 45.21 -2.35, 53.93 -2.79 M1.77 -1.64 C10.38 -2.23, 44.7 -4.79, 53.47 -4.81" stroke="#000000" stroke-width="1" fill="none"></path></g></g><g stroke-linecap="round"><g transform="translate(167.82455997690556 11.284158617174256) rotate(0 22.144757894831685 24.30896557163912)"><path d="M-0.51 -0.16 C6.71 8.15, 35.29 41.57, 42.4 49.9 M1.42 -1.28 C9.13 6.68, 37.6 40.04, 44.8 48.25" stroke="#000000" stroke-width="1" fill="none"></path></g></g></svg>